<svg width="1518" height="1518" viewBox="0 0 1518 1518" fill="none" xmlns="http://www.w3.org/2000/svg">
<path fill-rule="evenodd" clip-rule="evenodd" d="M752.101 316.622L427.326 1.3993C424.883 -0.971883 420.831 -0.226807 419.391 2.85832L354.487 141.939C353.606 143.826 354 146.062 355.472 147.533L751.996 544.057C755.863 547.924 762.133 547.924 765.999 544.057L1162.52 147.533C1163.99 146.062 1164.39 143.826 1163.51 141.939L1098.6 2.85831C1097.17 -0.226817 1093.12 -0.971883 1090.67 1.39929L765.894 316.622C762.052 320.351 755.943 320.351 752.101 316.622ZM1515.14 419.399L1376.06 354.494C1374.18 353.614 1371.94 354.008 1370.46 355.479L973.942 752.003C970.075 755.869 970.075 762.139 973.942 766.006L1370.46 1162.53C1371.94 1164 1374.18 1164.4 1376.06 1163.52L1515.14 1098.61C1518.23 1097.17 1518.97 1093.12 1516.6 1090.68L1201.38 765.901C1197.64 762.059 1197.64 755.949 1201.38 752.108L1516.6 427.333C1518.97 424.89 1518.23 420.838 1515.14 419.399ZM1162.52 1370.46L765.999 973.944C762.133 970.077 755.863 970.077 751.996 973.944L355.472 1370.46C354 1371.94 353.606 1374.18 354.487 1376.06L419.391 1515.14C420.831 1518.23 424.883 1518.97 427.326 1516.6L752.101 1201.38C755.943 1197.65 762.052 1197.65 765.894 1201.38L1090.67 1516.6C1093.12 1518.97 1097.17 1518.23 1098.6 1515.14L1163.51 1376.06C1164.39 1374.18 1163.99 1371.94 1162.52 1370.46ZM544.058 766.006L145.082 1164.98L2.85832 1098.61C-0.226817 1097.17 -0.971885 1093.12 1.39929 1090.68L316.622 765.901C320.352 762.059 320.352 755.949 316.622 752.107L1.3993 427.333C-0.971885 424.89 -0.226807 420.838 2.85833 419.399L141.939 354.494C143.826 353.614 146.062 354.008 147.534 355.479L544.058 752.003C547.925 755.869 547.925 762.139 544.058 766.006ZM198.061 300.042L300.049 198.054C301.968 196.136 305.072 196.119 307.012 198.016L752.074 633.402C755.923 637.167 762.074 637.167 765.923 633.402L1210.98 198.016C1212.92 196.119 1216.03 196.136 1217.95 198.054L1319.94 300.042C1321.86 301.964 1321.87 305.075 1319.97 307.013L766.06 870.635C762.181 874.583 755.817 874.583 751.936 870.635L198.03 307.013C196.126 305.075 196.139 301.964 198.061 300.042ZM910.762 815.182L815.179 910.764C811.444 914.499 811.297 920.507 814.845 924.419L1191.19 1339.36C1193.09 1341.46 1196.36 1341.54 1198.36 1339.54L1339.54 1198.36C1341.54 1196.36 1341.46 1193.09 1339.36 1191.19L924.416 814.848C920.504 811.3 914.497 811.447 910.762 815.182ZM607.237 815.182L702.82 910.764C706.555 914.499 706.702 920.507 703.154 924.419L326.807 1339.36C324.906 1341.46 321.64 1341.54 319.639 1339.54L178.462 1198.36C176.462 1196.36 176.541 1193.09 178.637 1191.19L593.582 814.848C597.495 811.3 603.502 811.447 607.237 815.182Z" fill="#EBC771"/>
</svg>
